<mxfile host="app.diagrams.net" modified="2024-06-21T05:54:55.842Z" agent="Mozilla/5.0 (Windows NT 10.0; Win64; x64) AppleWebKit/537.36 (KHTML, like Gecko) Chrome/126.0.0.0 Safari/537.36 Edg/126.0.0.0" etag="861fYgPY3ZDN7yk1vZmY" version="24.6.0" type="device">
  <diagram name="Trang-1" id="91f6AP8cN2Y-5_5YrZQX">
    <mxGraphModel dx="832" dy="481" grid="1" gridSize="10" guides="1" tooltips="1" connect="1" arrows="1" fold="1" page="1" pageScale="1" pageWidth="827" pageHeight="1169" math="0" shadow="0">
      <root>
        <mxCell id="0" />
        <mxCell id="1" parent="0" />
        <mxCell id="BQbuBEPu4z1WssYLFk4M-2" value="TCP SERVER" style="swimlane;whiteSpace=wrap;html=1;" vertex="1" parent="1">
          <mxGeometry x="80" y="20" width="150" height="320" as="geometry" />
        </mxCell>
        <mxCell id="BQbuBEPu4z1WssYLFk4M-11" value="" style="shape=or;whiteSpace=wrap;html=1;rotation=-180;" vertex="1" parent="BQbuBEPu4z1WssYLFk4M-2">
          <mxGeometry x="120" y="120" width="30" height="40" as="geometry" />
        </mxCell>
        <mxCell id="BQbuBEPu4z1WssYLFk4M-13" value="PORT" style="text;html=1;align=center;verticalAlign=middle;whiteSpace=wrap;rounded=0;" vertex="1" parent="BQbuBEPu4z1WssYLFk4M-2">
          <mxGeometry x="60" y="125" width="60" height="30" as="geometry" />
        </mxCell>
        <mxCell id="BQbuBEPu4z1WssYLFk4M-3" value="Client1" style="rounded=0;whiteSpace=wrap;html=1;" vertex="1" parent="1">
          <mxGeometry x="480" y="50" width="90" height="40" as="geometry" />
        </mxCell>
        <mxCell id="BQbuBEPu4z1WssYLFk4M-5" value="Client2" style="rounded=0;whiteSpace=wrap;html=1;" vertex="1" parent="1">
          <mxGeometry x="480" y="120" width="90" height="40" as="geometry" />
        </mxCell>
        <mxCell id="BQbuBEPu4z1WssYLFk4M-16" style="rounded=0;orthogonalLoop=1;jettySize=auto;html=1;exitX=0;exitY=0.5;exitDx=0;exitDy=0;" edge="1" parent="1" source="BQbuBEPu4z1WssYLFk4M-6">
          <mxGeometry relative="1" as="geometry">
            <mxPoint x="230" y="160" as="targetPoint" />
          </mxGeometry>
        </mxCell>
        <mxCell id="BQbuBEPu4z1WssYLFk4M-6" value="Client3" style="rounded=0;whiteSpace=wrap;html=1;" vertex="1" parent="1">
          <mxGeometry x="480" y="190" width="90" height="40" as="geometry" />
        </mxCell>
        <mxCell id="BQbuBEPu4z1WssYLFk4M-17" style="rounded=0;orthogonalLoop=1;jettySize=auto;html=1;" edge="1" parent="1" source="BQbuBEPu4z1WssYLFk4M-7">
          <mxGeometry relative="1" as="geometry">
            <mxPoint x="230" y="160" as="targetPoint" />
          </mxGeometry>
        </mxCell>
        <mxCell id="BQbuBEPu4z1WssYLFk4M-7" value="ClientN" style="rounded=0;whiteSpace=wrap;html=1;" vertex="1" parent="1">
          <mxGeometry x="480" y="280" width="90" height="40" as="geometry" />
        </mxCell>
        <mxCell id="BQbuBEPu4z1WssYLFk4M-10" value="" style="endArrow=none;html=1;rounded=0;exitX=0;exitY=0.25;exitDx=0;exitDy=0;entryX=1;entryY=0.25;entryDx=0;entryDy=0;" edge="1" parent="1">
          <mxGeometry width="50" height="50" relative="1" as="geometry">
            <mxPoint x="80" y="81" as="sourcePoint" />
            <mxPoint x="230" y="81" as="targetPoint" />
          </mxGeometry>
        </mxCell>
        <mxCell id="BQbuBEPu4z1WssYLFk4M-33" value="" style="rounded=0;whiteSpace=wrap;html=1;fillColor=none;" vertex="1" parent="1">
          <mxGeometry x="80" y="350" width="620" height="360" as="geometry" />
        </mxCell>
        <mxCell id="BQbuBEPu4z1WssYLFk4M-12" value="" style="endArrow=classic;html=1;rounded=0;exitX=0;exitY=0.5;exitDx=0;exitDy=0;entryX=0;entryY=0.5;entryDx=0;entryDy=0;entryPerimeter=0;" edge="1" parent="1" source="BQbuBEPu4z1WssYLFk4M-3" target="BQbuBEPu4z1WssYLFk4M-11">
          <mxGeometry width="50" height="50" relative="1" as="geometry">
            <mxPoint x="340" y="150" as="sourcePoint" />
            <mxPoint x="390" y="100" as="targetPoint" />
          </mxGeometry>
        </mxCell>
        <mxCell id="BQbuBEPu4z1WssYLFk4M-15" style="rounded=0;orthogonalLoop=1;jettySize=auto;html=1;entryX=0;entryY=0.5;entryDx=0;entryDy=0;entryPerimeter=0;" edge="1" parent="1" source="BQbuBEPu4z1WssYLFk4M-5" target="BQbuBEPu4z1WssYLFk4M-11">
          <mxGeometry relative="1" as="geometry" />
        </mxCell>
        <mxCell id="BQbuBEPu4z1WssYLFk4M-18" value="" style="endArrow=classic;html=1;rounded=0;exitX=1;exitY=0.5;exitDx=0;exitDy=0;edgeStyle=orthogonalEdgeStyle;curved=1;" edge="1" parent="1" source="BQbuBEPu4z1WssYLFk4M-13">
          <mxGeometry width="50" height="50" relative="1" as="geometry">
            <mxPoint x="110" y="160" as="sourcePoint" />
            <mxPoint x="150" y="520" as="targetPoint" />
            <Array as="points">
              <mxPoint x="50" y="160" />
              <mxPoint x="50" y="520" />
            </Array>
          </mxGeometry>
        </mxCell>
        <mxCell id="BQbuBEPu4z1WssYLFk4M-20" value="" style="endArrow=none;html=1;rounded=0;" edge="1" parent="1">
          <mxGeometry width="50" height="50" relative="1" as="geometry">
            <mxPoint x="160" y="490" as="sourcePoint" />
            <mxPoint x="440" y="490" as="targetPoint" />
          </mxGeometry>
        </mxCell>
        <mxCell id="BQbuBEPu4z1WssYLFk4M-21" value="" style="endArrow=none;html=1;rounded=0;" edge="1" parent="1">
          <mxGeometry width="50" height="50" relative="1" as="geometry">
            <mxPoint x="160" y="550" as="sourcePoint" />
            <mxPoint x="440" y="550" as="targetPoint" />
          </mxGeometry>
        </mxCell>
        <mxCell id="BQbuBEPu4z1WssYLFk4M-22" value="task1" style="rounded=0;whiteSpace=wrap;html=1;" vertex="1" parent="1">
          <mxGeometry x="180" y="500" width="60" height="40" as="geometry" />
        </mxCell>
        <mxCell id="BQbuBEPu4z1WssYLFk4M-23" value="task2" style="rounded=0;whiteSpace=wrap;html=1;" vertex="1" parent="1">
          <mxGeometry x="260" y="500" width="60" height="40" as="geometry" />
        </mxCell>
        <mxCell id="BQbuBEPu4z1WssYLFk4M-24" value="taskN" style="rounded=0;whiteSpace=wrap;html=1;" vertex="1" parent="1">
          <mxGeometry x="340" y="500" width="60" height="40" as="geometry" />
        </mxCell>
        <mxCell id="BQbuBEPu4z1WssYLFk4M-25" value="Queue" style="text;html=1;align=center;verticalAlign=middle;whiteSpace=wrap;rounded=0;" vertex="1" parent="1">
          <mxGeometry x="260" y="460" width="60" height="30" as="geometry" />
        </mxCell>
        <mxCell id="BQbuBEPu4z1WssYLFk4M-26" value="Thread Pool" style="swimlane;whiteSpace=wrap;html=1;" vertex="1" parent="1">
          <mxGeometry x="480" y="390" width="140" height="280" as="geometry" />
        </mxCell>
        <mxCell id="BQbuBEPu4z1WssYLFk4M-27" value="Thread1" style="rounded=0;whiteSpace=wrap;html=1;" vertex="1" parent="BQbuBEPu4z1WssYLFk4M-26">
          <mxGeometry x="20" y="40" width="100" height="40" as="geometry" />
        </mxCell>
        <mxCell id="BQbuBEPu4z1WssYLFk4M-28" value="Thread2" style="rounded=0;whiteSpace=wrap;html=1;" vertex="1" parent="BQbuBEPu4z1WssYLFk4M-26">
          <mxGeometry x="20" y="110" width="100" height="40" as="geometry" />
        </mxCell>
        <mxCell id="BQbuBEPu4z1WssYLFk4M-29" value="ThreadM" style="rounded=0;whiteSpace=wrap;html=1;" vertex="1" parent="BQbuBEPu4z1WssYLFk4M-26">
          <mxGeometry x="20" y="184.5" width="100" height="40" as="geometry" />
        </mxCell>
        <mxCell id="BQbuBEPu4z1WssYLFk4M-30" value="" style="endArrow=classic;html=1;rounded=0;entryX=0;entryY=0.5;entryDx=0;entryDy=0;" edge="1" parent="1" target="BQbuBEPu4z1WssYLFk4M-27">
          <mxGeometry width="50" height="50" relative="1" as="geometry">
            <mxPoint x="440" y="500" as="sourcePoint" />
            <mxPoint x="490" y="450" as="targetPoint" />
          </mxGeometry>
        </mxCell>
        <mxCell id="BQbuBEPu4z1WssYLFk4M-31" value="" style="endArrow=classic;html=1;rounded=0;entryX=0;entryY=0.5;entryDx=0;entryDy=0;" edge="1" parent="1" target="BQbuBEPu4z1WssYLFk4M-28">
          <mxGeometry width="50" height="50" relative="1" as="geometry">
            <mxPoint x="440" y="520" as="sourcePoint" />
            <mxPoint x="490" y="480" as="targetPoint" />
          </mxGeometry>
        </mxCell>
        <mxCell id="BQbuBEPu4z1WssYLFk4M-32" value="" style="endArrow=classic;html=1;rounded=0;entryX=0;entryY=0.5;entryDx=0;entryDy=0;" edge="1" parent="1" target="BQbuBEPu4z1WssYLFk4M-29">
          <mxGeometry width="50" height="50" relative="1" as="geometry">
            <mxPoint x="440" y="540" as="sourcePoint" />
            <mxPoint x="420" y="630" as="targetPoint" />
          </mxGeometry>
        </mxCell>
        <mxCell id="BQbuBEPu4z1WssYLFk4M-34" value="ExecutorService" style="text;html=1;align=center;verticalAlign=middle;whiteSpace=wrap;rounded=0;" vertex="1" parent="1">
          <mxGeometry x="100" y="350" width="60" height="30" as="geometry" />
        </mxCell>
      </root>
    </mxGraphModel>
  </diagram>
</mxfile>
